<?xml version="1.0" encoding="UTF-8" standalone="no"?>
<!DOCTYPE svg PUBLIC "-//W3C//DTD SVG 1.1//EN" "http://www.w3.org/Graphics/SVG/1.1/DTD/svg11.dtd">
<svg width="100%" height="100%" viewBox="0 0 819 820" version="1.1" xmlns="http://www.w3.org/2000/svg" xmlns:xlink="http://www.w3.org/1999/xlink" xml:space="preserve" xmlns:serif="http://www.serif.com/" style="fill-rule:evenodd;clip-rule:evenodd;stroke-linejoin:round;stroke-miterlimit:2;">
    <g transform="matrix(1,0,0,1,-1129,-1057)">
        <g id="Plan-de-travail1" serif:id="Plan de travail1" transform="matrix(1.38909,0,0,1.33172,-2129.15,-6.56962)">
            <rect x="1532.77" y="4.933" width="1489.12" height="1476.54" style="fill:none;"/>
            <g transform="matrix(0.719895,0,0,0.750906,977.598,559.653)">
                <g transform="matrix(1,0,0,1,714.499,299.861)">
                    <path d="M1563.53,21.6C1561.63,21.8 1555.53,22.5 1550.03,23C1471.83,31.2 1394.83,64.3 1332.03,116.9C1320.43,126.5 1294.03,152.9 1284.43,164.5C1232.43,226.6 1202.03,296.3 1190.83,378.8C1188.33,397.1 1188.33,458.9 1190.83,477.2C1202.03,559.7 1232.43,629.4 1284.43,691.5C1294.03,703.1 1320.43,729.5 1332.03,739.1C1394.13,791.1 1463.83,821.5 1546.33,832.7C1564.63,835.2 1626.43,835.2 1644.73,832.7C1727.23,821.5 1796.93,791.1 1859.03,739.1C1870.63,729.5 1897.03,703.1 1906.63,691.5C1958.63,629.4 1989.03,559.7 2000.23,477.2C2002.73,458.9 2002.73,397.1 2000.23,378.8C1989.03,296.3 1958.63,226.6 1906.63,164.5C1897.03,152.9 1870.63,126.5 1859.03,116.9C1797.13,65.1 1726.73,34.3 1645.33,23.4C1636.53,22.2 1623.73,21.7 1600.03,21.5C1581.93,21.3 1565.43,21.4 1563.53,21.6ZM1586.03,315.5C1608.63,318.9 1628.33,325.2 1647.83,335.2C1660.43,341.7 1666.43,346.2 1680.43,359.6C1701.23,379.5 1714.03,396.9 1726.03,421.5C1743.53,457.3 1750.33,489 1758.93,574C1762.83,612.1 1767.93,681.2 1769.03,709.5C1769.33,717.7 1770.03,731.2 1770.63,739.5C1771.73,757.1 1773.03,754.7 1757.53,762.2C1736.03,772.6 1715.33,779.8 1688.03,786.5C1654.63,794.7 1633.03,797.3 1600.03,797.4L1576.03,797.5L1576.23,786C1576.23,779.7 1576.83,765 1577.43,753.5C1580.43,697.8 1579.83,627.5 1575.93,588.5C1573.73,566.1 1569.43,538.9 1567.03,532.9C1566.53,531.6 1568.83,530.5 1578.73,527.1C1596.83,520.8 1612.53,512.9 1614.93,509C1619.23,501.6 1611.53,491 1601.73,491C1600.03,491 1594.93,492.8 1590.23,494.9C1567.83,505.2 1522.93,517.3 1497.03,520C1479.13,521.9 1451.33,520.8 1432.03,517.3C1421.53,515.4 1402.73,508.3 1387.03,500.2C1368.93,490.8 1357.83,478.3 1354.53,463.5C1352.73,455.5 1353.23,439.5 1355.53,430.5C1358.03,420.6 1365.03,406.2 1371.43,397.8C1399.93,360.3 1458.73,327.8 1519.03,316.4C1538.23,312.8 1565.43,312.4 1586.03,315.5ZM1451.88,630.928C1494.94,630.928 1529.91,665.895 1529.91,708.964C1529.91,752.033 1494.94,787 1451.88,787C1408.81,787 1373.84,752.033 1373.84,708.964C1373.84,665.895 1408.81,630.928 1451.88,630.928ZM1834.45,582.601C1864.9,582.601 1889.63,607.326 1889.63,637.78C1889.63,668.233 1864.9,692.958 1834.45,692.958C1803.99,692.958 1779.27,668.233 1779.27,637.78C1779.27,607.326 1803.99,582.601 1834.45,582.601ZM1324.09,604.966C1347.46,604.966 1366.44,623.94 1366.44,647.312C1366.44,670.684 1347.46,689.658 1324.09,689.658C1300.72,689.658 1281.75,670.684 1281.75,647.312C1281.75,623.94 1300.72,604.966 1324.09,604.966ZM1547.74,609.365C1559.78,609.365 1569.55,619.14 1569.55,631.18C1569.55,643.22 1559.78,652.995 1547.74,652.995C1535.7,652.995 1525.92,643.22 1525.92,631.18C1525.92,619.14 1535.7,609.365 1547.74,609.365ZM1406.29,556.35C1424.4,556.35 1439.1,571.053 1439.1,589.164C1439.1,607.274 1424.4,621.978 1406.29,621.978C1388.18,621.978 1373.48,607.274 1373.48,589.164C1373.48,571.053 1388.18,556.35 1406.29,556.35ZM1254.98,571.969C1267.12,571.969 1276.98,581.826 1276.98,593.967C1276.98,606.108 1267.12,615.965 1254.98,615.965C1242.84,615.965 1232.98,606.108 1232.98,593.967C1232.98,581.826 1242.84,571.969 1254.98,571.969ZM1911.26,546.671C1927.04,546.671 1939.85,559.485 1939.85,575.268C1939.85,591.052 1927.04,603.866 1911.26,603.866C1895.47,603.866 1882.66,591.052 1882.66,575.268C1882.66,559.485 1895.47,546.671 1911.26,546.671ZM1493.29,532.372C1512.31,532.372 1527.76,547.815 1527.76,566.836C1527.76,585.857 1512.31,601.299 1493.29,601.299C1474.27,601.299 1458.83,585.857 1458.83,566.836C1458.83,547.815 1474.27,532.372 1493.29,532.372ZM1320.35,487.349C1347.16,487.349 1368.93,509.117 1368.93,535.928C1368.93,562.74 1347.16,584.507 1320.35,584.507C1293.54,584.507 1271.77,562.74 1271.77,535.928C1271.77,509.117 1293.54,487.349 1320.35,487.349ZM1823.08,474.077C1846.45,474.077 1865.43,493.052 1865.43,516.423C1865.43,539.795 1846.45,558.77 1823.08,558.77C1799.71,558.77 1780.74,539.795 1780.74,516.423C1780.74,493.052 1799.71,474.077 1823.08,474.077ZM1919.32,461.245C1938.34,461.245 1953.79,476.687 1953.79,495.708C1953.79,514.729 1938.34,530.172 1919.32,530.172C1900.3,530.172 1884.86,514.729 1884.86,495.708C1884.86,476.687 1900.3,461.245 1919.32,461.245ZM1236.46,449.146C1254.58,449.146 1269.28,463.849 1269.28,481.96C1269.28,500.07 1254.58,514.774 1236.46,514.774C1218.36,514.774 1203.65,500.07 1203.65,481.96C1203.65,463.849 1218.36,449.146 1236.46,449.146ZM1306.13,414.682C1321.81,414.682 1334.54,427.414 1334.54,443.096C1334.54,458.779 1321.81,471.511 1306.13,471.511C1290.44,471.511 1277.71,458.779 1277.71,443.096C1277.71,427.414 1290.44,414.682 1306.13,414.682ZM1781.29,434.114C1790.9,434.114 1798.7,441.917 1798.7,451.529C1798.7,461.141 1790.9,468.944 1781.29,468.944C1771.67,468.944 1763.87,461.141 1763.87,451.529C1763.87,441.917 1771.67,434.114 1781.29,434.114ZM1868.36,250.796C1923.6,250.796 1968.45,295.646 1968.45,350.888C1968.45,406.13 1923.6,450.979 1868.36,450.979C1813.12,450.979 1768.27,406.13 1768.27,350.888C1768.27,295.646 1813.12,250.796 1868.36,250.796ZM1970.47,420.915C1978.06,420.915 1984.22,427.076 1984.22,434.664C1984.22,442.252 1978.06,448.413 1970.47,448.413C1962.88,448.413 1956.72,442.252 1956.72,434.664C1956.72,427.076 1962.88,420.915 1970.47,420.915ZM1755.62,396.717C1763.21,396.717 1769.37,402.878 1769.37,410.466C1769.37,418.054 1763.21,424.215 1755.62,424.215C1748.03,424.215 1741.87,418.054 1741.87,410.466C1741.87,402.878 1748.03,396.717 1755.62,396.717ZM1251.5,338.789C1274.87,338.789 1293.84,357.763 1293.84,381.135C1293.84,404.507 1274.87,423.481 1251.5,423.481C1228.13,423.481 1209.15,404.507 1209.15,381.135C1209.15,357.763 1228.13,338.789 1251.5,338.789ZM1329.96,358.587C1342,358.587 1351.77,368.362 1351.77,380.402C1351.77,392.442 1342,402.217 1329.96,402.217C1317.92,402.217 1308.14,392.442 1308.14,380.402C1308.14,368.362 1317.92,358.587 1329.96,358.587ZM1735.82,348.321C1743.41,348.321 1749.57,354.482 1749.57,362.07C1749.57,369.658 1743.41,375.819 1735.82,375.819C1728.23,375.819 1722.07,369.658 1722.07,362.07C1722.07,354.482 1728.23,348.321 1735.82,348.321ZM1690.54,307.991C1702.68,307.991 1712.54,317.848 1712.54,329.99C1712.54,342.131 1702.68,351.988 1690.54,351.988C1678.4,351.988 1668.54,342.131 1668.54,329.99C1668.54,317.848 1678.4,307.991 1690.54,307.991ZM1326.66,269.128C1348.21,269.128 1365.7,286.624 1365.7,308.175C1365.7,329.725 1348.21,347.221 1326.66,347.221C1305.11,347.221 1287.61,329.725 1287.61,308.175C1287.61,286.624 1305.11,269.128 1326.66,269.128ZM1407.68,288.926C1419.72,288.926 1429.5,298.701 1429.5,310.741C1429.5,322.781 1419.72,332.556 1407.68,332.556C1395.64,332.556 1385.87,322.781 1385.87,310.741C1385.87,298.701 1395.64,288.926 1407.68,288.926ZM1244.16,274.994C1256.2,274.994 1265.98,284.769 1265.98,296.809C1265.98,308.849 1256.2,318.624 1244.16,318.624C1232.13,318.624 1222.35,308.849 1222.35,296.809C1222.35,284.769 1232.13,274.994 1244.16,274.994ZM1741.32,258.862C1756.8,258.862 1769.37,271.43 1769.37,286.91C1769.37,302.39 1756.8,314.957 1741.32,314.957C1725.84,314.957 1713.27,302.39 1713.27,286.91C1713.27,271.43 1725.84,258.862 1741.32,258.862ZM1632.43,145.572C1677.66,145.572 1714.37,182.29 1714.37,227.515C1714.37,272.741 1677.66,309.458 1632.43,309.458C1587.2,309.458 1550.49,272.741 1550.49,227.515C1550.49,182.29 1587.2,145.572 1632.43,145.572ZM1482.11,210.1C1505.48,210.1 1524.46,229.075 1524.46,252.446C1524.46,275.818 1505.48,294.793 1482.11,294.793C1458.74,294.793 1439.76,275.818 1439.76,252.446C1439.76,229.075 1458.74,210.1 1482.11,210.1ZM1278.81,214.866C1295,214.866 1308.14,228.009 1308.14,244.197C1308.14,260.385 1295,273.528 1278.81,273.528C1262.62,273.528 1249.48,260.385 1249.48,244.197C1249.48,228.009 1262.62,214.866 1278.81,214.866ZM1373.59,140.073C1407.68,140.073 1435.37,166.276 1435.37,198.551C1435.37,230.826 1407.68,257.029 1373.59,257.029C1339.49,257.029 1311.81,230.826 1311.81,198.551C1311.81,166.276 1339.49,140.073 1373.59,140.073ZM1783.48,148.139C1812.12,148.139 1835.36,171.385 1835.36,200.017C1835.36,228.65 1812.12,251.896 1783.48,251.896C1754.85,251.896 1731.61,228.65 1731.61,200.017C1731.61,171.385 1754.85,148.139 1783.48,148.139ZM1884.68,175.636C1903.6,175.636 1918.96,190.997 1918.96,209.917C1918.96,228.836 1903.6,244.197 1884.68,244.197C1865.76,244.197 1850.39,228.836 1850.39,209.917C1850.39,190.997 1865.76,175.636 1884.68,175.636ZM1500.44,48.047C1539.19,48.047 1570.65,79.508 1570.65,118.258C1570.65,157.008 1539.19,188.468 1500.44,188.468C1461.69,188.468 1430.23,157.008 1430.23,118.258C1430.23,79.508 1461.69,48.047 1500.44,48.047ZM1710.16,97.176C1729.08,97.176 1744.44,112.537 1744.44,131.457C1744.44,150.377 1729.08,165.737 1710.16,165.737C1691.24,165.737 1675.88,150.377 1675.88,131.457C1675.88,112.537 1691.24,97.176 1710.16,97.176ZM1840.68,132.007C1848.27,132.007 1854.43,138.167 1854.43,145.755C1854.43,153.344 1848.27,159.504 1840.68,159.504C1833.09,159.504 1826.93,153.344 1826.93,145.755C1826.93,138.167 1833.09,132.007 1840.68,132.007ZM1627.48,44.014C1652.57,44.014 1672.94,64.385 1672.94,89.477C1672.94,114.569 1652.57,134.94 1627.48,134.94C1602.39,134.94 1582.02,114.569 1582.02,89.477C1582.02,64.385 1602.39,44.014 1627.48,44.014ZM1780,88.744C1792.14,88.744 1802,98.601 1802,110.742C1802,122.883 1792.14,132.74 1780,132.74C1767.86,132.74 1758,122.883 1758,110.742C1758,98.601 1767.86,88.744 1780,88.744ZM1705.21,49.147C1714.92,49.147 1722.81,57.033 1722.81,66.746C1722.81,76.458 1714.92,84.344 1705.21,84.344C1695.5,84.344 1687.61,76.458 1687.61,66.746C1687.61,57.033 1695.5,49.147 1705.21,49.147Z" style="fill:rgb(81,140,182);fill-rule:nonzero;"/>
                </g>
                <g transform="matrix(0.1,0,0,-0.1,1806.03,1238.86)">
                    <path d="M3184,5756C3080,5711 3072,5570 3170,5520C3241,5484 3313,5501 3350,5563C3420,5677 3306,5809 3184,5756Z" style="fill:rgb(81,140,182);fill-rule:nonzero;"/>
                </g>
                <g transform="matrix(0.1,0,0,-0.1,1806.03,1238.86)">
                    <path d="M3862,5660C3766,5601 3766,5459 3862,5400C3957,5343 4080,5418 4080,5532C4080,5642 3954,5716 3862,5660Z" style="fill:rgb(81,140,182);fill-rule:nonzero;"/>
                </g>
            </g>
        </g>
    </g>
</svg>
