<?xml version="1.0" encoding="UTF-8" standalone="no"?><!DOCTYPE svg PUBLIC "-//W3C//DTD SVG 1.1//EN" "http://www.w3.org/Graphics/SVG/1.1/DTD/svg11.dtd"><svg width="100%" height="100%" viewBox="0 0 509 263" version="1.1" xmlns="http://www.w3.org/2000/svg" xmlns:xlink="http://www.w3.org/1999/xlink" xml:space="preserve" xmlns:serif="http://www.serif.com/" style="fill-rule:evenodd;clip-rule:evenodd;stroke-linejoin:round;stroke-miterlimit:2;"><g><rect x="0.143" y="0.164" width="507.816" height="261.978" style="fill:#002137;"/><g><g transform="matrix(55.20298,0,0,55.20298,416.996103,123.891275)"></g><text x="233.166px" y="123.891px" style="font-family:'MVBoli', 'MV Boli';font-size:55.203px;fill:#fff;">Mousse</text><g transform="matrix(0.187055,0,0,0.187055,-370.117511,15.627056)"><text x="2505.973px" y="987.378px" style="font-family:'SegoeUIEmoji', 'Segoe UI Emoji', sans-serif;font-size:83.609px;fill:#fff;">🫧</text><g transform="matrix(83.608802,0,0,83.608802,4205.175029,987.378333)"></g><text x="2620.772px" y="987.378px" style="font-family:'MVBoli', 'MV Boli';font-size:83.609px;fill:#fff;">µWebsockets Node webserver framework</text></g><g><g><circle cx="124.423" cy="105.239" r="33.669" style="fill:#0e9fff;"/><path d="M111.841,78.449l8.28,1.008c-9.114,5.788 -18.439,14.986 -19.769,29.44c-0.894,-13.304 4.721,-23.333 11.488,-30.449Z" style="fill:#fff;"/></g><g><circle cx="141.275" cy="74.384" r="16.852" style="fill:#b6e2ff;"/><path d="M134.977,60.975l4.144,0.505c-4.562,2.897 -9.229,7.501 -9.894,14.735c-0.448,-6.659 2.363,-11.678 5.75,-15.24Z" style="fill:#fff;"/></g><g><circle cx="167.748" cy="91.235" r="24.269" style="fill:#80ccff;"/><path d="M158.678,71.925l5.969,0.727c-6.57,4.172 -13.291,10.802 -14.249,21.221c-0.645,-9.589 3.403,-16.819 8.281,-21.948Z" style="fill:#fff;"/></g><g><circle cx="152.089" cy="118.92" r="32.274" style="fill:#005a95;"/><path d="M140.028,93.24l7.937,0.967c-8.736,5.548 -17.675,14.365 -18.949,28.22c-0.857,-12.752 4.525,-22.366 11.012,-29.187Z" style="fill:#fff;"/></g></g></g></g></svg>